<svg version="1.1" id="Layer_1" xmlns="http://www.w3.org/2000/svg" xmlns:xlink="http://www.w3.org/1999/xlink" x="0px" y="0px"
	 width="100%" viewBox="0 0 500 500" enable-background="new 0 0 500 500" xml:space="preserve">
<path fill="#000000" opacity="1.000000" stroke="none" 
	d="
M255.000000,501.000000 
	C170.000015,501.000000 85.500038,501.000000 1.000045,501.000000 
	C1.000030,334.333405 1.000030,167.666794 1.000015,1.000135 
	C167.666565,1.000090 334.333130,1.000090 500.999756,1.000045 
	C500.999847,167.666519 500.999847,334.333038 500.999939,500.999786 
	C419.166656,501.000000 337.333344,501.000000 255.000000,501.000000 
M212.966110,288.062408 
	C212.921555,268.378479 212.876984,248.694534 212.997147,228.174393 
	C212.701416,225.824554 212.405685,223.474701 212.165482,221.566177 
	C201.748306,224.969437 192.397308,227.941956 183.128616,231.152100 
	C181.908676,231.574646 181.109406,233.211868 180.115295,234.286514 
	C181.176834,234.964951 182.186508,236.117661 183.308838,236.240417 
	C188.386459,236.795883 189.634293,240.255280 189.981628,244.485092 
	C190.131027,246.304626 190.149734,248.139069 190.144287,249.966461 
	C190.099274,265.057648 190.360809,280.159821 189.850037,295.235626 
	C189.557526,303.869843 187.817856,305.132538 177.758026,306.947601 
	C179.922546,308.529083 181.061447,310.077118 182.214005,310.087341 
	C189.774857,310.154419 197.339523,309.737793 204.901184,309.781677 
	C210.743225,309.815552 216.582687,310.290802 222.423294,310.569824 
	C222.641266,309.938934 222.859238,309.308044 223.077225,308.677185 
	C221.680695,307.618042 220.424683,306.216034 218.857315,305.573761 
	C215.928223,304.373505 213.561783,303.171204 213.596405,299.366394 
	C213.627853,295.910095 213.107224,292.448730 212.966110,288.062408 
M87.234100,182.742859 
	C83.159126,182.546722 79.084145,182.350571 74.373039,181.985474 
	C73.937531,181.939163 73.502014,181.892838 72.743530,181.206406 
	C68.299194,181.598465 63.854851,181.990540 59.001396,182.418686 
	C58.948586,183.624237 58.887356,185.022064 58.866074,185.507919 
	C63.803223,186.865799 68.342079,188.114120 73.230484,189.977707 
	C74.209885,193.321701 75.189278,196.665695 76.027786,200.936386 
	C76.075661,230.287582 76.123543,259.638763 76.123306,289.883148 
	C76.510086,302.375336 72.733627,304.640137 59.184917,306.458557 
	C59.071507,307.810364 58.952869,309.224457 58.790562,311.159058 
	C68.892563,310.673218 78.737328,309.870331 88.585884,309.820862 
	C98.023369,309.773438 107.463516,310.786713 116.904778,310.829620 
	C129.114624,310.885101 141.367142,309.909454 152.718430,305.176819 
	C163.561752,300.655945 171.381119,292.420105 172.635361,280.418793 
	C174.145599,265.968109 168.195114,254.530212 155.198929,247.307770 
	C151.122803,245.042496 146.896042,243.048309 142.167404,240.639236 
	C144.933334,239.095398 147.096207,238.040909 149.102753,236.744476 
	C168.271881,224.358810 167.398758,198.621094 148.053864,188.401550 
	C140.039871,184.167923 131.589828,183.239273 122.315308,182.035507 
	C119.474846,182.090515 116.634384,182.145523 112.909088,182.029694 
	C105.930870,182.335358 98.952644,182.641022 91.490402,182.757492 
	C90.986359,182.821884 90.482315,182.886276 89.340164,182.694595 
	C88.899086,182.782211 88.458000,182.869827 87.234100,182.742859 
M304.703156,287.191040 
	C306.132324,282.378571 308.238220,277.645996 308.818542,272.733246 
	C309.536316,266.657227 309.405182,260.396515 308.890808,254.278656 
	C308.066650,244.477005 304.587616,235.481781 297.093994,228.879395 
	C287.809052,220.698715 273.822418,218.099091 259.895325,229.019379 
	C259.895325,227.998108 259.879242,227.229874 259.897766,226.462448 
	C260.266327,211.195068 260.655334,195.928146 261.000275,180.660248 
	C261.098907,176.293594 259.978973,175.769501 256.118744,177.174728 
	C247.805389,180.201004 239.338226,182.803421 231.007858,185.785553 
	C229.517227,186.319199 228.381546,187.844437 227.081985,188.911835 
	C228.390854,189.804596 229.721405,190.667496 231.003265,191.597473 
	C232.726791,192.847885 235.131943,193.812546 235.931458,195.516098 
	C236.914108,197.609879 236.719055,200.338287 236.728668,202.793564 
	C236.790573,218.610565 236.788162,234.427917 236.766815,250.245087 
	C236.757172,257.400513 236.619095,264.555725 236.603714,271.711212 
	C236.575699,284.738800 236.595764,297.766479 236.595764,311.710327 
	C238.461487,310.696594 240.195984,310.029358 241.602737,308.939178 
	C246.186661,305.386780 250.762787,304.984985 255.883301,307.789215 
	C257.993500,308.944855 260.113220,310.301941 262.402100,310.878082 
	C282.023834,315.816956 296.679047,303.001251 304.703156,287.191040 
M400.919647,297.031616 
	C388.637360,292.562439 380.801178,278.344666 382.247986,262.486786 
	C384.626373,262.486786 387.083252,262.481384 389.540100,262.487671 
	C400.519836,262.515778 411.499542,262.561707 422.479279,262.570190 
	C426.753143,262.573486 430.476318,259.673584 429.896454,256.497070 
	C429.012604,251.655319 428.208984,246.705276 426.505066,242.123352 
	C419.728394,223.900208 403.386475,218.867325 386.588715,223.633987 
	C376.667755,226.449219 370.302277,233.858414 365.471588,242.554642 
	C358.434723,255.222351 357.461548,268.481934 360.708496,282.627808 
	C363.244659,293.677032 368.800934,302.087494 378.453094,307.397064 
	C395.470947,316.758453 418.948334,312.749542 430.039337,291.810303 
	C430.722015,290.521393 430.562561,288.786438 430.794952,287.259003 
	C429.349335,287.927612 427.617615,288.286682 426.504669,289.315247 
	C419.451172,295.833771 411.734528,300.017456 400.919647,297.031616 
M335.461853,309.734558 
	C341.796600,309.734558 348.131317,309.734558 354.466064,309.734558 
	C354.700134,309.276062 354.934204,308.817596 355.168274,308.359100 
	C353.857544,307.491211 352.392853,306.785522 351.270020,305.719666 
	C349.288025,303.838226 346.458893,301.998322 345.883392,299.671326 
	C344.834564,295.430481 344.972565,290.846588 344.966827,286.405365 
	C344.930969,258.608002 344.971313,230.810471 345.035431,203.013107 
	C345.052307,195.702530 345.331909,188.392044 345.306946,181.082138 
	C345.297485,178.306488 344.880280,175.586456 340.726898,177.117126 
	C332.516541,180.142914 324.227478,182.955688 316.030304,186.015594 
	C314.963196,186.413956 313.379669,188.003250 313.552887,188.601532 
	C313.889252,189.763306 315.272278,190.646667 316.278564,191.584305 
	C317.907806,193.102432 320.753876,194.383331 321.028534,196.094681 
	C322.021423,202.280304 322.574829,208.605850 322.542572,214.874710 
	C322.401367,242.287460 322.011017,269.699036 321.677673,297.110626 
	C321.584930,304.737091 320.989655,305.341278 312.986908,306.632843 
	C312.883759,307.684601 312.776672,308.776154 312.682770,309.733368 
	C320.115234,309.733368 327.298431,309.733368 335.461853,309.734558 
M213.004028,198.251801 
	C212.678284,194.624329 213.079926,190.730225 211.869171,187.427170 
	C209.633347,181.327698 200.454773,178.436447 194.239700,181.001236 
	C187.201004,183.905960 183.241364,193.381058 186.306030,198.792206 
	C189.167664,203.844894 192.832260,207.469025 198.739624,207.933960 
	C205.529892,208.468384 209.707932,204.587921 213.004028,198.251801 
z"/>
<path fill="#EBEAEA" opacity="1.000000" stroke="none" 
	d="
M122.990295,182.174103 
	C131.589828,183.239273 140.039871,184.167923 148.053864,188.401550 
	C167.398758,198.621094 168.271881,224.358810 149.102753,236.744476 
	C147.096207,238.040909 144.933334,239.095398 142.167404,240.639236 
	C146.896042,243.048309 151.122803,245.042496 155.198929,247.307770 
	C168.195114,254.530212 174.145599,265.968109 172.635361,280.418793 
	C171.381119,292.420105 163.561752,300.655945 152.718430,305.176819 
	C141.367142,309.909454 129.114624,310.885101 116.904778,310.829620 
	C107.463516,310.786713 98.023369,309.773438 88.585884,309.820862 
	C78.737328,309.870331 68.892563,310.673218 58.790562,311.159058 
	C58.952869,309.224457 59.071507,307.810364 59.184917,306.458557 
	C72.733627,304.640137 76.510086,302.375336 76.527313,289.325867 
	C77.287376,287.740601 77.952255,286.713257 77.954437,285.684540 
	C78.012253,258.295624 78.024475,230.906464 77.925339,203.517776 
	C77.921104,202.346313 76.780113,201.178955 76.168678,200.009689 
	C75.189278,196.665695 74.209885,193.321701 73.061287,189.300568 
	C72.009613,187.031540 71.127129,185.439651 70.264412,183.883392 
	C71.328575,183.109848 72.197540,182.478180 73.066505,181.846527 
	C73.502014,181.892838 73.937531,181.939163 74.798538,182.448212 
	C79.488335,182.926453 83.752625,182.941940 88.016922,182.957443 
	C88.458000,182.869827 88.899086,182.782211 89.774658,183.025803 
	C90.797577,183.220230 91.386002,183.083450 91.974426,182.946686 
	C98.952644,182.641022 105.930870,182.335358 113.547577,182.507965 
	C117.244301,184.054199 120.337875,185.505417 122.990295,182.174103 
M102.024078,273.500000 
	C102.019699,280.329102 101.974686,287.158508 102.023727,293.987213 
	C102.063354,299.505676 104.117981,302.387360 109.407677,303.442322 
	C112.583145,304.075623 115.927696,303.904999 119.199036,304.005768 
	C130.679993,304.359467 142.680969,298.790405 145.179779,285.222198 
	C147.358475,273.392242 146.834747,262.064819 137.985031,252.841705 
	C127.835945,242.264420 114.936554,244.799698 102.024078,245.565948 
	C102.024078,254.888123 102.024078,263.694061 102.024078,273.500000 
M116.632545,238.146317 
	C128.314987,237.841309 135.539764,232.414612 137.749619,221.712524 
	C138.444000,218.349777 138.204437,214.736008 138.012207,211.258133 
	C137.020981,193.325775 121.849678,185.894547 106.792946,188.308945 
	C104.914917,188.610107 102.267006,192.240112 102.202118,194.394684 
	C101.791077,208.044098 101.931877,221.713547 102.142990,235.372482 
	C102.162094,236.608780 103.887680,238.777145 104.954903,238.863953 
	C108.545021,239.155975 112.195770,238.702377 116.632545,238.146317 
z"/>
<path fill="#EBEAEA" opacity="1.000000" stroke="none" 
	d="
M304.465088,287.491943 
	C296.679047,303.001251 282.023834,315.816956 262.402100,310.878082 
	C260.113220,310.301941 257.993500,308.944855 255.883301,307.789215 
	C250.762787,304.984985 246.186661,305.386780 241.602737,308.939178 
	C240.195984,310.029358 238.461487,310.696594 236.595764,311.710327 
	C236.595764,297.766479 236.575699,284.738800 236.603714,271.711212 
	C236.619095,264.555725 236.757172,257.400513 236.766815,250.245087 
	C236.788162,234.427917 236.790573,218.610565 236.728668,202.793564 
	C236.719055,200.338287 236.914108,197.609879 235.931458,195.516098 
	C235.131943,193.812546 232.726791,192.847885 231.003265,191.597473 
	C229.721405,190.667496 228.390854,189.804596 227.081985,188.911835 
	C228.381546,187.844437 229.517227,186.319199 231.007858,185.785553 
	C239.338226,182.803421 247.805389,180.201004 256.118744,177.174728 
	C259.978973,175.769501 261.098907,176.293594 261.000275,180.660248 
	C260.655334,195.928146 260.266327,211.195068 259.897766,226.462448 
	C259.879242,227.229874 259.895325,227.998108 259.895325,229.019379 
	C273.822418,218.099091 287.809052,220.698715 297.093994,228.879395 
	C304.587616,235.481781 308.066650,244.477005 308.890808,254.278656 
	C309.405182,260.396515 309.536316,266.657227 308.818542,272.733246 
	C308.238220,277.645996 306.132324,282.378571 304.465088,287.491943 
M259.317596,239.051254 
	C259.250122,253.231400 259.182678,267.411530 259.227631,282.087067 
	C259.393951,282.377930 259.560272,282.668823 259.967743,283.621704 
	C259.913727,284.084686 259.859680,284.547638 259.256927,285.105438 
	C258.972504,285.420258 258.688080,285.735077 258.403656,286.049866 
	C258.876831,286.363281 259.349976,286.676666 259.985565,287.789886 
	C260.279694,289.571045 260.564911,291.353760 260.869415,293.133148 
	C262.642273,303.492065 271.166687,308.601074 278.217468,302.910522 
	C281.193848,300.508331 283.076019,295.904663 284.001587,291.960449 
	C287.207733,278.297943 286.623657,264.449982 284.390472,250.682510 
	C282.130676,236.751160 274.214508,231.335312 262.017120,234.521652 
	C261.907654,233.926712 261.798157,233.331772 261.688690,232.736847 
	C261.251343,232.646317 260.813995,232.555771 260.376678,232.465240 
	C260.011963,234.352097 259.647247,236.238937 259.317596,239.051254 
z"/>
<path fill="#E7E7E6" opacity="1.000000" stroke="none" 
	d="
M401.330750,297.130066 
	C411.734528,300.017456 419.451172,295.833771 426.504669,289.315247 
	C427.617615,288.286682 429.349335,287.927612 430.794952,287.259003 
	C430.562561,288.786438 430.722015,290.521393 430.039337,291.810303 
	C418.948334,312.749542 395.470947,316.758453 378.453094,307.397064 
	C368.800934,302.087494 363.244659,293.677032 360.708496,282.627808 
	C357.461548,268.481934 358.434723,255.222351 365.471588,242.554642 
	C370.302277,233.858414 376.667755,226.449219 386.588715,223.633987 
	C403.386475,218.867325 419.728394,223.900208 426.505066,242.123352 
	C428.208984,246.705276 429.012604,251.655319 429.896454,256.497070 
	C430.476318,259.673584 426.753143,262.573486 422.479279,262.570190 
	C411.499542,262.561707 400.519836,262.515778 389.540100,262.487671 
	C387.083252,262.481384 384.626373,262.486786 382.247986,262.486786 
	C380.801178,278.344666 388.637360,292.562439 401.330750,297.130066 
M408.013580,249.060883 
	C406.988007,243.513367 406.848999,237.595963 404.725616,232.506439 
	C401.666077,225.173050 391.474182,225.069199 386.988739,231.742081 
	C382.502960,238.415497 381.333618,245.916229 381.975189,253.699539 
	C382.064087,254.778244 384.353302,256.433411 385.699005,256.510529 
	C389.971832,256.755432 394.290192,256.131561 398.572327,256.304474 
	C404.463501,256.542328 406.350586,255.454041 408.013580,249.060883 
z"/>
<path fill="#EBEBEA" opacity="1.000000" stroke="none" 
	d="
M334.971741,309.733948 
	C327.298431,309.733368 320.115234,309.733368 312.682770,309.733368 
	C312.776672,308.776154 312.883759,307.684601 312.986908,306.632843 
	C320.989655,305.341278 321.584930,304.737091 321.677673,297.110626 
	C322.011017,269.699036 322.401367,242.287460 322.542572,214.874710 
	C322.574829,208.605850 322.021423,202.280304 321.028534,196.094681 
	C320.753876,194.383331 317.907806,193.102432 316.278564,191.584305 
	C315.272278,190.646667 313.889252,189.763306 313.552887,188.601532 
	C313.379669,188.003250 314.963196,186.413956 316.030304,186.015594 
	C324.227478,182.955688 332.516541,180.142914 340.726898,177.117126 
	C344.880280,175.586456 345.297485,178.306488 345.306946,181.082138 
	C345.331909,188.392044 345.052307,195.702530 345.035431,203.013107 
	C344.971313,230.810471 344.930969,258.608002 344.966827,286.405365 
	C344.972565,290.846588 344.834564,295.430481 345.883392,299.671326 
	C346.458893,301.998322 349.288025,303.838226 351.270020,305.719666 
	C352.392853,306.785522 353.857544,307.491211 355.168274,308.359100 
	C354.934204,308.817596 354.700134,309.276062 354.466064,309.734558 
	C348.131317,309.734558 341.796600,309.734558 334.971741,309.733948 
z"/>
<path fill="#EAEAE9" opacity="1.000000" stroke="none" 
	d="
M212.829956,288.989624 
	C213.107224,292.448730 213.627853,295.910095 213.596405,299.366394 
	C213.561783,303.171204 215.928223,304.373505 218.857315,305.573761 
	C220.424683,306.216034 221.680695,307.618042 223.077225,308.677185 
	C222.859238,309.308044 222.641266,309.938934 222.423294,310.569824 
	C216.582687,310.290802 210.743225,309.815552 204.901184,309.781677 
	C197.339523,309.737793 189.774857,310.154419 182.214005,310.087341 
	C181.061447,310.077118 179.922546,308.529083 177.758026,306.947601 
	C187.817856,305.132538 189.557526,303.869843 189.850037,295.235626 
	C190.360809,280.159821 190.099274,265.057648 190.144287,249.966461 
	C190.149734,248.139069 190.131027,246.304626 189.981628,244.485092 
	C189.634293,240.255280 188.386459,236.795883 183.308838,236.240417 
	C182.186508,236.117661 181.176834,234.964951 180.115295,234.286514 
	C181.109406,233.211868 181.908676,231.574646 183.128616,231.152100 
	C192.397308,227.941956 201.748306,224.969437 212.165482,221.566177 
	C212.405685,223.474701 212.701416,225.824554 212.533997,228.702057 
	C211.712128,230.254379 211.044342,231.277924 211.040649,232.303848 
	C210.976868,250.032654 210.960129,267.761963 211.073639,285.490265 
	C211.081116,286.660431 212.218262,287.823334 212.829956,288.989624 
z"/>
<path fill="#EBEAEA" opacity="1.000000" stroke="none" 
	d="
M212.787750,198.574249 
	C209.707932,204.587921 205.529892,208.468384 198.739624,207.933960 
	C192.832260,207.469025 189.167664,203.844894 186.306030,198.792206 
	C183.241364,193.381058 187.201004,183.905960 194.239700,181.001236 
	C200.454773,178.436447 209.633347,181.327698 211.869171,187.427170 
	C213.079926,190.730225 212.678284,194.624329 212.787750,198.574249 
z"/>
<path fill="#F7F7F5" opacity="1.000000" stroke="none" 
	d="
M76.098236,200.473038 
	C76.780113,201.178955 77.921104,202.346313 77.925339,203.517776 
	C78.024475,230.906464 78.012253,258.295624 77.954437,285.684540 
	C77.952255,286.713257 77.287376,287.740601 76.551369,288.879272 
	C76.123543,259.638763 76.075661,230.287582 76.098236,200.473038 
z"/>
<path fill="#F7F7F5" opacity="1.000000" stroke="none" 
	d="
M212.898041,288.526001 
	C212.218262,287.823334 211.081116,286.660431 211.073639,285.490265 
	C210.960129,267.761963 210.976868,250.032654 211.040649,232.303848 
	C211.044342,231.277924 211.712128,230.254379 212.451630,229.120148 
	C212.876984,248.694534 212.921555,268.378479 212.898041,288.526001 
z"/>
<path fill="#F7F7F5" opacity="1.000000" stroke="none" 
	d="
M72.905014,181.526459 
	C72.197540,182.478180 71.328575,183.109848 70.264412,183.883392 
	C71.127129,185.439651 72.009613,187.031540 72.886505,188.992935 
	C68.342079,188.114120 63.803223,186.865799 58.866074,185.507919 
	C58.887356,185.022064 58.948586,183.624237 59.001396,182.418686 
	C63.854851,181.990540 68.299194,181.598465 72.905014,181.526459 
z"/>
<path fill="#F7F7F5" opacity="1.000000" stroke="none" 
	d="
M87.625511,182.850159 
	C83.752625,182.941940 79.488335,182.926453 75.116608,182.532684 
	C79.084145,182.350571 83.159126,182.546722 87.625511,182.850159 
z"/>
<path fill="#F7F7F5" opacity="1.000000" stroke="none" 
	d="
M122.652802,182.104797 
	C120.337875,185.505417 117.244301,184.054199 113.989998,182.593384 
	C116.634384,182.145523 119.474846,182.090515 122.652802,182.104797 
z"/>
<path fill="#F7F7F5" opacity="1.000000" stroke="none" 
	d="
M91.732414,182.852081 
	C91.386002,183.083450 90.797577,183.220230 90.093704,183.153839 
	C90.482315,182.886276 90.986359,182.821884 91.732414,182.852081 
z"/>
<path fill="#010101" opacity="1.000000" stroke="none" 
	d="
M102.024078,273.000000 
	C102.024078,263.694061 102.024078,254.888123 102.024078,245.565948 
	C114.936554,244.799698 127.835945,242.264420 137.985031,252.841705 
	C146.834747,262.064819 147.358475,273.392242 145.179779,285.222198 
	C142.680969,298.790405 130.679993,304.359467 119.199036,304.005768 
	C115.927696,303.904999 112.583145,304.075623 109.407677,303.442322 
	C104.117981,302.387360 102.063354,299.505676 102.023727,293.987213 
	C101.974686,287.158508 102.019699,280.329102 102.024078,273.000000 
z"/>
<path fill="#010101" opacity="1.000000" stroke="none" 
	d="
M116.227936,238.340179 
	C112.195770,238.702377 108.545021,239.155975 104.954903,238.863953 
	C103.887680,238.777145 102.162094,236.608780 102.142990,235.372482 
	C101.931877,221.713547 101.791077,208.044098 102.202118,194.394684 
	C102.267006,192.240112 104.914917,188.610107 106.792946,188.308945 
	C121.849678,185.894547 137.020981,193.325775 138.012207,211.258133 
	C138.204437,214.736008 138.444000,218.349777 137.749619,221.712524 
	C135.539764,232.414612 128.314987,237.841309 116.227936,238.340179 
z"/>
<path fill="#020202" opacity="1.000000" stroke="none" 
	d="
M259.115204,281.591675 
	C259.182678,267.411530 259.250122,253.231400 259.551392,238.429321 
	C260.545227,236.927078 261.305237,236.046753 262.065247,235.166443 
	C274.214508,231.335312 282.130676,236.751160 284.390472,250.682510 
	C286.623657,264.449982 287.207733,278.297943 284.001587,291.960449 
	C283.076019,295.904663 281.193848,300.508331 278.217468,302.910522 
	C271.166687,308.601074 262.642273,303.492065 260.869415,293.133148 
	C260.564911,291.353760 260.279694,289.571045 259.973877,287.062195 
	C259.910004,285.893188 259.857819,285.451904 259.805634,285.010620 
	C259.859680,284.547638 259.913727,284.084686 259.871979,283.019409 
	C259.555878,282.141968 259.335541,281.866821 259.115204,281.591675 
z"/>
<path fill="#F7F7F5" opacity="1.000000" stroke="none" 
	d="
M262.041199,234.844040 
	C261.305237,236.046753 260.545227,236.927078 259.533875,237.966583 
	C259.647247,236.238937 260.011963,234.352097 260.376678,232.465240 
	C260.813995,232.555771 261.251343,232.646317 261.688690,232.736847 
	C261.798157,233.331772 261.907654,233.926712 262.041199,234.844040 
z"/>
<path fill="#F7F7F5" opacity="1.000000" stroke="none" 
	d="
M259.531281,285.058044 
	C259.857819,285.451904 259.910004,285.893188 259.892670,286.662292 
	C259.349976,286.676666 258.876831,286.363281 258.403656,286.049866 
	C258.688080,285.735077 258.972504,285.420258 259.531281,285.058044 
z"/>
<path fill="#F7F7F5" opacity="1.000000" stroke="none" 
	d="
M259.171417,281.839355 
	C259.335541,281.866821 259.555878,282.141968 259.751404,282.688416 
	C259.560272,282.668823 259.393951,282.377930 259.171417,281.839355 
z"/>
<path fill="#020202" opacity="1.000000" stroke="none" 
	d="
M408.002991,249.498779 
	C406.350586,255.454041 404.463501,256.542328 398.572327,256.304474 
	C394.290192,256.131561 389.971832,256.755432 385.699005,256.510529 
	C384.353302,256.433411 382.064087,254.778244 381.975189,253.699539 
	C381.333618,245.916229 382.502960,238.415497 386.988739,231.742081 
	C391.474182,225.069199 401.666077,225.173050 404.725616,232.506439 
	C406.848999,237.595963 406.988007,243.513367 408.002991,249.498779 
z"/>
</svg>